# xmcd
#
# Track frame offsets:
#	150
#	51406
#	77590
#	118515
#	149863
#	209651
#	241421
#
# Disc length: 3520 seconds
#
# Revision: 1
# Processed by: cddbd v1.5.2PL0 Copyright (c) Steve Scherf et al.
# Submitted via: audiograbber 1.83.01
#
DISCID=6b0dbe07
DTITLE=Grateful Dead - 95-03-30 The Omni, Atlanta GA
DYEAR=1900
DGENRE=
TTITLE0=China Cat Sunflower
TTITLE1=I Know You Rider
TTITLE2=Looks Like Rain
TTITLE3=Samba In The Rain
TTITLE4=He's Gone
TTITLE5=That Would Be Something
TTITLE6=Drums
EXTD=
EXTT0=
EXTT1=
EXTT2=
EXTT3=
EXTT4=
EXTT5=
EXTT6=
PLAYORDER=
